<svg width="182" height="42" viewBox="0 0 182 42" fill="none" xmlns="http://www.w3.org/2000/svg">
<path d="M46.0459 27.6215C40.5495 29.6423 34.3979 29.8971 28.7377 28.4953C24.0421 27.4212 19.7287 25.2002 15.2698 23.6345C8.17178 21.1222 4.60459 23.6527 0 28.9323C1.83819 24.4356 5.78758 19.3017 13.741 19.9389C18.9825 20.3576 23.7691 21.8868 27.5911 22.4148C45.5545 24.8907 58.4218 14.7504 58.1852 4.13672C59.0952 9.41624 59.623 21.8686 46.0459 27.6215Z" fill="url(#paint0_linear_14718_12750)"/>
<path d="M27.5912 22.4147C27.0998 10.4175 37.8924 0.568429 50.1228 2.5346C36.4364 -3.96468 20.7844 5.88436 20.748 21.0493C23.2596 21.5773 25.5528 22.1416 27.5912 22.4147Z" fill="url(#paint1_linear_14718_12750)"/>
<path opacity="0.5" d="M27.5912 22.4147C27.0998 10.4175 37.8924 0.568429 50.1228 2.5346C36.4364 -3.96468 20.7844 5.88436 20.748 21.0493C23.2596 21.5773 25.5528 22.1416 27.5912 22.4147Z" fill="url(#paint2_linear_14718_12750)"/>
<path d="M80.6072 14.5867C76.2938 14.5867 73.9824 14.5867 73.9824 14.5867V27.4032C73.9824 27.4032 76.3666 27.4032 80.6072 27.4032C84.8478 27.4032 87.2684 24.3265 87.2684 20.9949C87.2684 17.6816 84.9206 14.5867 80.6072 14.5867ZM80.589 24.5631C78.2958 24.5631 77.0218 24.5631 77.0218 24.5631V17.4449C77.0218 17.4449 78.2594 17.4449 80.589 17.4449C82.9186 17.4449 84.1744 19.1562 84.1744 21.0131C84.1744 22.8519 82.8822 24.5631 80.589 24.5631Z" fill="white"/>
<path d="M175.339 14.5867C171.025 14.5867 168.714 14.5867 168.714 14.5867V27.4032C168.714 27.4032 171.098 27.4032 175.339 27.4032C179.579 27.4032 182 24.3265 182 20.9949C182 17.6816 179.652 14.5867 175.339 14.5867ZM175.32 24.5631C173.027 24.5631 171.753 24.5631 171.753 24.5631V17.4449C171.753 17.4449 172.991 17.4449 175.32 17.4449C177.65 17.4449 178.906 19.1562 178.906 21.0131C178.906 22.8519 177.614 24.5631 175.32 24.5631Z" fill="white"/>
<path d="M88.5973 14.5867C88.5973 14.5867 93.3657 14.5867 96.1321 14.5867C98.9167 14.5867 101.082 16.5528 101.082 19.3564C101.082 22.1601 98.8985 24.1808 96.1139 24.1808C93.3293 24.1808 91.6549 24.1808 91.6549 24.1808V27.385H88.5791V14.5867H88.5973ZM91.6731 17.3721V21.359H95.9865C98.6619 21.3772 98.6437 17.3721 95.9865 17.3721H91.6731Z" fill="white"/>
<path d="M122.905 14.5867L120.229 22.4331L117.354 14.5867C117.336 14.5867 113.495 14.5867 113.459 14.5867L110.583 22.4331L107.908 14.5867H104.796L108.836 27.4032H111.894L115.406 17.8272L118.919 27.4032H121.958L125.999 14.5867H122.905Z" fill="white"/>
<path d="M141.322 14.5867H149.257C150.641 14.5867 151.878 14.9872 152.825 15.8792C154.79 17.7362 154.372 21.4501 152.006 22.7608L154.39 27.4032H151.023L149.221 23.5619H144.398V27.4032H141.34V14.5867H141.322ZM144.362 17.3903V20.7947H149.003C150.167 20.8311 150.895 20.1575 150.914 19.0834C150.914 17.9364 150.186 17.3903 149.003 17.3903C149.021 17.3903 144.362 17.3903 144.362 17.3903Z" fill="white"/>
<path d="M155.792 14.5867H158.868V24.4721H167.404V27.4032H155.792V14.5867Z" fill="white"/>
<path d="M132.896 14.4409C128.746 14.4409 125.889 17.0261 125.889 20.9948C125.889 24.9635 128.746 27.5487 132.896 27.5487C137.045 27.5487 139.903 24.9635 139.903 20.9948C139.903 17.0261 137.045 14.4409 132.896 14.4409ZM132.896 24.5448C130.566 24.5448 128.946 23.143 128.946 20.9948C128.946 18.8466 130.548 17.4448 132.896 17.4448C135.225 17.4448 136.845 18.8466 136.845 20.9948C136.827 23.143 135.225 24.5448 132.896 24.5448Z" fill="white"/>
<path d="M42.7698 41.4573C34.5071 41.9671 27.3181 37.8709 23.4961 31.2806C36.4545 42.7135 62.0072 33.7019 60.806 14.8777C64.8282 27.239 55.7464 40.6563 42.7698 41.4573Z" fill="url(#paint3_linear_14718_12750)"/>
<defs>
<linearGradient id="paint0_linear_14718_12750" x1="-0.410245" y1="29.3608" x2="60.5738" y2="13.8017" gradientUnits="userSpaceOnUse">
<stop stop-color="#00E68C" stop-opacity="0.3"/>
<stop offset="0.6" stop-color="#00E68C"/>
<stop offset="0.9641" stop-color="#00E68C" stop-opacity="0.3627"/>
<stop offset="1" stop-color="#00E68C" stop-opacity="0.3"/>
</linearGradient>
<linearGradient id="paint1_linear_14718_12750" x1="20.7476" y1="11.4543" x2="50.119" y2="11.4543" gradientUnits="userSpaceOnUse">
<stop stop-color="#FF2261"/>
<stop offset="0.9" stop-color="#FF2261" stop-opacity="0.1"/>
</linearGradient>
<linearGradient id="paint2_linear_14718_12750" x1="32.5838" y1="24.6468" x2="34.5775" y2="14.9113" gradientUnits="userSpaceOnUse">
<stop stop-color="#68022C"/>
<stop offset="0.15" stop-color="#68022C" stop-opacity="0.75"/>
<stop offset="1" stop-color="#68022C" stop-opacity="0"/>
</linearGradient>
<linearGradient id="paint3_linear_14718_12750" x1="25.655" y1="37.5514" x2="64.0572" y2="24.3323" gradientUnits="userSpaceOnUse">
<stop stop-color="white" stop-opacity="0.1"/>
<stop offset="0.6" stop-color="white" stop-opacity="0.95"/>
<stop offset="1" stop-color="white" stop-opacity="0.3"/>
</linearGradient>
</defs>
</svg>
