<svg id="Layer_1" xmlns="http://www.w3.org/2000/svg" version="1.1" viewBox="0 0 411 175"><defs><style>.st0{fill:#020200}</style></defs><path style="fill:#fff" d="M170.3 0h239.3v97.1H170.3z"/><path d="M170.3 0v97.1h239.3V0H170.3ZM224 87.6l-16.3-54.1h-.2l-10.8 54.1H177l16.7-78.2h26l16 54.2h.2l11-54.2h19.7l-16.5 78.2h-25.9Zm79.5 0 6.9-33.5h-24.7l-6.9 33.5h-20.9l16.2-78.2H295l-6.1 29.9h24.7l6.1-29.9h20.9l-16.2 78.2h-20.9Zm92.1-60.5c-4-1.9-9.5-3.6-17.2-3.6s-15 1.2-15 7.5c0 11.1 30.3 6.9 30.3 30.7s-20 27.2-38.1 27.2-17.3-1.9-24.1-4l4.9-15.9c4.1 2.7 12.4 4.5 19.2 4.5s16.6-1.2 16.6-9.3c0-12.5-30.3-7.8-30.3-29.9s17.7-26.2 34.7-26.2 18.6 1 23.9 3.5l-5 15.6Z" style="fill:#005eb8"/><path class="st0" d="M0 126.7h12c5.3 0 9.9.9 13.8 2.9 3.9 2 5.9 5.9 6 11.5 0 5.4-1.8 9.3-5.2 11.6-3.4 2.4-7.8 3.5-13.1 3.5h-4v18H0v-47.5Zm9.5 22h3.3c2.5 0 4.6-.5 6.4-1.5 1.7-1 2.6-2.9 2.7-5.6 0-1.4-.2-2.6-.7-3.5-.5-1-1.2-1.7-2-2.2-1.7-1.1-3.9-1.6-6.4-1.6H9.5v14.5ZM38 139.1h8.1v8h.1c.3-1.8 1.3-3.7 3-5.6 1.7-2 3.9-3 6.6-3.1.9 0 1.8 0 2.8.3v9.2c-1-.5-2.3-.7-4.1-.7s-3.2.5-4.2 1.5-1.7 2.2-2.2 3.7c-.5 1.5-.7 3-.8 4.6 0 1.6-.1 3.1-.1 4.4v12.9h-9.1v-35ZM66.1 143.2c3.4-3.2 7.7-4.9 13-4.9s9.7 1.7 13.1 4.9c3.4 3.3 5.2 7.8 5.2 13.7 0 5.1-1.6 9.4-4.8 12.8-3.2 3.4-7.7 5.2-13.6 5.3-5.8 0-10.3-1.9-13.5-5.3-3.2-3.4-4.8-7.7-4.8-12.8 0-5.8 1.8-10.4 5.3-13.7Zm4.3 14.7c0 .8.2 1.5.3 2.2.3 1.5.7 2.8 1.4 3.9.7 1.2 1.6 2.1 2.7 2.8 1.1.8 2.5 1.2 4.2 1.2s3.2-.4 4.4-1.1c1.1-.7 2-1.6 2.7-2.8.7-1.2 1.1-2.5 1.4-3.9.2-1.4.3-2.8.3-4.3 0-2.8-.7-5.2-2.1-7.3-1.5-2-3.7-3.1-6.7-3.1-2.9 0-5.1 1.1-6.5 3.2-1.5 2-2.2 4.4-2.2 7.2s0 1.4.1 2ZM107.9 145.8h-6.7v-6.7h6.7v-4.9c0-3.6 1-6.5 2.9-8.6 1.9-2.1 4.6-3.2 8.2-3.3 2.5 0 4.7.3 6.7.7l-.7 7.6c-.4-.3-.9-.6-1.5-.9-.6-.2-1.4-.3-2.4-.3-1.5 0-2.5.6-3.1 1.6-.6 1.1-.9 2.3-.9 3.7v4.4h8v6.7h-8v28.4H108v-28.4ZM159.1 172.3c-3.2 1.8-7.2 2.7-12 2.7-12.1-.2-18.2-6.2-18.3-18.2 0-5.2 1.4-9.6 4.1-13.1 2.7-3.5 6.8-5.3 12.2-5.4 6.4 0 10.8 2 13.3 5.9 2.3 3.9 3.4 9 3.4 15.2h-24.2c.2 2.8 1.2 5 3.1 6.5 1.8 1.6 4.1 2.4 6.9 2.4s4.3-.4 6.3-1.1c1.9-.6 3.7-1.5 5.4-2.4v7.5Zm-6.1-19.1c0-2.3-.7-4.2-1.8-5.8-1.2-1.6-3-2.4-5.6-2.4-2.5 0-4.4.8-5.8 2.3-1.4 1.5-2.1 3.5-2.3 5.9H153ZM189.6 146.5c-1.3-.5-2.6-.9-3.8-1.2-1.2-.2-2.7-.3-4.4-.3s-2.4.3-3.5.7c-1.2.6-1.8 1.6-1.8 3.1 0 1.3.9 2.2 2.5 2.8.8.3 1.6.6 2.6.9 1 .3 1.9.6 2.9 1 1 .3 2 .7 3 1.2.9.5 1.7 1.2 2.4 1.9.8.8 1.4 1.7 1.8 2.8.4 1.1.6 2.5.6 4.1 0 4-1.6 7-4.5 8.8-2.9 1.8-6.3 2.7-10.2 2.7-3.5 0-6.9-.5-10.3-1.5l.5-7.5c2.9 1.5 5.8 2.3 9 2.3s2.6-.3 3.9-1c1.4-.6 2.1-1.7 2.1-3.3 0-.9-.2-1.7-.6-2.2-.5-.5-1.1-1-1.8-1.3-1.6-.6-3.4-1.2-5.4-1.8-1-.3-1.9-.7-2.9-1.2s-1.8-1-2.6-1.8c-.8-.7-1.4-1.6-1.8-2.7-.5-1-.7-2.3-.7-3.9 0-3.8 1.5-6.6 4.3-8.3 2.6-1.7 5.8-2.6 9.5-2.6s4 .1 5.6.3c1.5.3 3 .6 4.4 1l-.6 6.9ZM219.8 146.5c-1.3-.5-2.6-.9-3.8-1.2-1.2-.2-2.7-.3-4.4-.3s-2.4.3-3.5.7c-1.2.6-1.8 1.6-1.8 3.1 0 1.3.9 2.2 2.5 2.8.8.3 1.6.6 2.6.9 1 .3 1.9.6 2.9 1 1 .3 2 .7 3 1.2.9.5 1.7 1.2 2.4 1.9.8.8 1.4 1.7 1.8 2.8.4 1.1.6 2.5.6 4.1 0 4-1.6 7-4.5 8.8-2.9 1.8-6.3 2.7-10.2 2.7-3.5 0-6.9-.5-10.3-1.5l.5-7.5c2.9 1.5 5.8 2.3 9 2.3s2.6-.3 3.9-1c1.4-.6 2.1-1.7 2.1-3.3 0-.9-.2-1.7-.6-2.2-.5-.5-1.1-1-1.8-1.3-1.6-.6-3.4-1.2-5.4-1.8-1-.3-1.9-.7-2.9-1.2s-1.8-1-2.6-1.8c-.8-.7-1.4-1.6-1.8-2.7-.5-1-.7-2.3-.7-3.9 0-3.8 1.5-6.6 4.3-8.3 2.6-1.7 5.8-2.6 9.5-2.6s4 .1 5.6.3c1.5.3 3 .6 4.4 1l-.6 6.9ZM229.4 124h9.1v8.7h-9.1V124Zm0 15.1h9.1v35h-9.1v-35ZM251.2 143.2c3.4-3.2 7.7-4.9 13-4.9s9.7 1.7 13.1 4.9c3.4 3.3 5.2 7.8 5.2 13.7 0 5.1-1.6 9.4-4.8 12.8-3.2 3.4-7.7 5.2-13.6 5.3-5.8 0-10.3-1.9-13.5-5.3-3.2-3.4-4.8-7.7-4.8-12.8 0-5.8 1.8-10.4 5.3-13.7Zm4.3 14.7c0 .8.2 1.5.3 2.2.3 1.5.7 2.8 1.4 3.9.7 1.2 1.6 2.1 2.7 2.8 1.1.8 2.5 1.2 4.2 1.2s3.2-.4 4.4-1.1c1.1-.7 2-1.6 2.7-2.8.7-1.2 1.1-2.5 1.4-3.9.2-1.4.3-2.8.3-4.3 0-2.8-.7-5.2-2.1-7.3-1.5-2-3.7-3.1-6.7-3.1-2.9 0-5.1 1.1-6.5 3.2-1.5 2-2.2 4.4-2.2 7.2s0 1.4.1 2ZM289.6 139.1h8.6v4.8h.1c2.9-3.8 6.7-5.6 11.5-5.6 4.1 0 7.2 1.3 9.1 3.9 1.9 2.5 2.8 5.8 2.8 9.9v22.1h-9.1V152c0-1.2-.3-2.2-.7-3.2-.3-1-.9-1.9-1.7-2.5-.9-.6-2-.9-3.5-.9s-2.9.4-3.9 1.2c-1 .8-1.8 1.7-2.4 2.9-.6 1.2-1 2.4-1.2 3.7-.3 1.4-.4 2.6-.4 3.8v17.1h-9.1v-35ZM332.7 141c3.9-1.7 8-2.6 12.2-2.7 10.2-.1 15.2 4.8 15.1 14.8v4.5c0 3.4 0 6.3.1 8.8 0 2.6.2 5.2.4 7.8h-8c-.3-2.1-.4-3.9-.4-5.2h-.1c-1.1 1.9-2.6 3.4-4.6 4.4-2 1.1-4.1 1.6-6.3 1.6-3.2 0-6-1-8.4-2.7-2.5-1.8-3.8-4.3-3.9-7.7 0-2.6.6-4.8 1.8-6.4 1.1-1.6 2.5-2.8 4.2-3.6 1.8-.9 3.7-1.4 5.8-1.7 2.1-.2 4.1-.3 6-.3h5c0-2.8-.6-4.8-1.9-5.9-1.3-1.1-3.3-1.6-6-1.6-4 0-7.6 1.3-10.8 3.8l-.3-7.8Zm6.6 26.2c1 .7 2.4 1.1 4.1 1.1 2.8 0 4.9-1.1 6.4-3.1 1.3-2 1.9-4.4 1.9-7.2h-5.5c-.5 0-1.1 0-1.6.1-1.2.1-2.3.4-3.3.8s-1.9 1-2.5 1.8c-.7.8-1.1 1.9-1.1 3.3s.6 2.5 1.7 3.2ZM369.2 123.2h9.1v51h-9.1v-51ZM408.7 146.5c-1.3-.5-2.6-.9-3.8-1.2-1.2-.2-2.7-.3-4.4-.3s-2.4.3-3.5.7c-1.2.6-1.8 1.6-1.8 3.1 0 1.3.9 2.2 2.5 2.8.8.3 1.6.6 2.6.9 1 .3 1.9.6 2.9 1 1 .3 2 .7 3 1.2.9.5 1.7 1.2 2.4 1.9.8.8 1.4 1.7 1.8 2.8.4 1.1.6 2.5.6 4.1 0 4-1.6 7-4.5 8.8-2.9 1.8-6.3 2.7-10.2 2.7-3.5 0-6.9-.5-10.3-1.5l.5-7.5c2.9 1.5 5.8 2.3 9 2.3s2.6-.3 3.9-1c1.4-.6 2.1-1.7 2.1-3.3 0-.9-.2-1.7-.6-2.2-.5-.5-1.1-1-1.8-1.3-1.6-.6-3.4-1.2-5.4-1.8-1-.3-1.9-.7-2.9-1.2s-1.8-1-2.6-1.8c-.8-.7-1.4-1.6-1.8-2.7-.5-1-.7-2.3-.7-3.9 0-3.8 1.5-6.6 4.3-8.3 2.6-1.7 5.8-2.6 9.5-2.6s4 .1 5.6.3c1.5.3 3 .6 4.4 1l-.6 6.9Z"/></svg>
